<svg
  cache-id="1c4e24c3ad2e4abe8aaba6cfcf13fb2e"
  id="ePrlivZy3uO1"
  xmlns="http://www.w3.org/2000/svg"
  xmlns:xlink="http://www.w3.org/1999/xlink"
  viewBox="0 0 640 640"
  shape-rendering="geometricPrecision"
  text-rendering="geometricPrecision"
>
  <path
    d="M143.219596,130.370788h2.204535h242.195329l-22.706989,39.584497h-243.614308l21.921433-39.584497Z"
    transform="translate(0 0.000001)"
    fill="#fff"
    stroke="#fff"
    stroke-width="1.282"
  />
  <path
    d="M297.586183,398.065173q.28623,4.579672-.609647,133.565016l40.677681-21.461209-.091512-54.68159c-26.845392-41.310901-38.944875-56.028982-39.976522-57.422217Z"
    transform="translate(.000003 0)"
    fill="#fff"
    stroke="#fff"
    stroke-width="1.282"
  />
  <path
    d="M143.219596,336.44225v128.352155l41.868467-22.706417-.36287-100.877882c.897147-12.417953,8.643802-15.085146,18.374739-14.287358v0h122.357861l39.454678,57.835197l91.305543,131.722274c21.002761,22.269068,52.934164,11.319955,56.362824-14.240564q1.303255-217.558936,0-217.341726t-41.052526,22.155331v157.74115q0,.000005-1.006183-1.442453l-54.693951-78.594013-68.37199-99.860016h-151.56662c-36.888462,1.746662-51.645034,35.008071-52.669972,51.544321"
    fill="#fff"
    stroke="#fff"
    stroke-width="1.282"
  />
  <rect
    style="mix-blend-mode:screen"
    width="640"
    height="640"
    rx="32"
    ry="32"
    fill="#4e42d4"
    stroke="#4e42d4"
    stroke-width="2"
    stroke-linejoin="round"
  />
</svg>
